PathFileType	4	(X/Y/Z)	D:\Share\Shared_Data\Ergonomics\Sit To Stand Pertubation\S3\Perturbed.trc
DataRate	CameraRate	NumFrames	NumMarkers	Units	OrigDataRate	OrigDataStartFrame	OrigNumFrames	
100	100	9	18	m	100	11602	211
Frame#	Time	R_ASIS			R_Pelvis			V_Sacral			L_Pelvis			L_ASIS			Clavical			R_Acromium			L_Acromium			Sternum			Torso			R_Thigh_Med			R_Thigh_Lat			R_Thigh			R_Shank_Med			R_Shank_Lat			R_Shank			R_Heel			R_Toe			
		X1	Y1	Z1	X2	Y2	Z2	X3	Y3	Z3	X4	Y4	Z4	X5	Y5	Z5	X6	Y6	Z6	X7	Y7	Z7	X8	Y8	Z8	X9	Y9	Z9	X10	Y10	Z10	X11	Y11	Z11	X12	Y12	Z12	X13	Y13	Z13	X14	Y14	Z14	X15	Y15	Z15	X16	Y16	Z16	X17	Y17	Z17	X18	Y18	Z18	

11602	116.01	0.29107062	0.89500684	0.14784746	0.18835347	0.91280426	0.20660645	0.077888916	0.95192676	0.01919647	0.18211311	0.92365155	-0.18690321	0.28271176	0.89039258	-0.13164259	0.37682538	1.3093502	0.0072861252	0.36295181	1.3758405	0.1704323	0.35380212	1.3768214	-0.1412944	0.38485434	1.2262263	0.0085010796	0.37717883	1.2934207	-0.055561436	0.39100275	0.46340433	0.053770573	0.37385068	0.44769406	0.15987569	0.37367581	0.66680292	0.11311874	0.2957554	0.10646231	0.088864639	0.27992694	0.094053734	0.17057976	0.30517664	0.277422	0.18222438	0.22038622	0.048807373	0.12893582	0.43791129	0.058780502	0.11233756
11603	116.02	0.29589737	0.90148767	0.14782396	0.19288846	0.91780396	0.20659586	0.082222061	0.95556085	0.018737118	0.18758725	0.92861951	-0.18719438	0.28839783	0.89670233	-0.13153188	0.37469623	1.3179816	0.007793077	0.35808911	1.3835931	0.17142894	0.34906671	1.3843131	-0.14156108	0.3841377	1.2354675	0.0090884399	0.37549915	1.3022985	-0.055468033	0.38776407	0.46397015	0.052748913	0.37073962	0.44874329	0.15893637	0.37555658	0.66784821	0.11218301	0.2952139	0.10651518	0.088976791	0.2795361	0.09420977	0.17077078	0.30311475	0.27806793	0.18178354	0.22025879	0.048475826	0.12882111	0.43764005	0.059354565	0.11221391
11604	116.03	0.30062079	0.90756274	0.14786497	0.19729036	0.92247852	0.20659053	0.086519371	0.95882495	0.018227575	0.1930562	0.93326343	-0.18752187	0.29406516	0.90263629	-0.13139601	0.37255945	1.3260609	0.0082997818	0.35326233	1.3907406	0.1724153	0.34441119	1.3912317	-0.14180879	0.38338828	1.2441857	0.0096665192	0.37378561	1.3106508	-0.055387413	0.38443182	0.46452582	0.051787338	0.3675614	0.44976395	0.15805731	0.37727567	0.66881708	0.1112611	0.29463431	0.10654832	0.089109558	0.27915622	0.094369331	0.17100552	0.30102222	0.27867877	0.18139287	0.2201468	0.048177029	0.12873141	0.43737045	0.05990506	0.11211747
11605	116.04	0.30523212	0.91321753	0.14797389	0.20152943	0.92679669	0.20653452	0.090775414	0.96170667	0.017671127	0.19850212	0.93756567	-0.18784055	0.29970236	0.90818268	-0.13125043	0.37041772	1.3335693	0.0087999554	0.34850064	1.3972872	0.17338113	0.33987109	1.3975717	-0.14203326	0.38260333	1.2523489	0.010236535	0.37202972	1.3184485	-0.055312916	0.38104404	0.46506149	0.050889275	0.36433054	0.45074609	0.1572386	0.37886371	0.66969299	0.11040124	0.29404276	0.10655431	0.089262733	0.27882333	0.094519333	0.17127293	0.2989165	0.27924945	0.18105098	0.22005292	0.047936932	0.12867737	0.43712448	0.060391296	0.11205545
11606	116.05	0.30972153	0.91844183	0.14814859	0.20559015	0.93072333	0.2063755	0.094985146	0.96419739	0.017073112	0.20390547	0.94151147	-0.18812714	0.30529739	0.91333588	-0.13110939	0.36827463	1.3404962	0.0092879276	0.34383322	1.4032412	0.17431876	0.33547879	1.4033342	-0.14223067	0.38178275	1.2599323	0.010798607	0.37022742	1.3256685	-0.055236183	0.37763617	0.4655665	0.050053108	0.36104974	0.45167865	0.15647552	0.38034811	0.67045422	0.10964622	0.29347095	0.10652699	0.089433525	0.2785658	0.0946511	0.17155505	0.29680365	0.27977744	0.18074762	0.21998218	0.04776466	0.12865692	0.43692389	0.060775799	0.11203258
11607	116.06	0.31407635	0.92322668	0.14838242	0.20947935	0.93422357	0.20608679	0.099143471	0.9662923	0.016440325	0.20924655	0.94508972	-0.18837344	0.31083713	0.91809369	-0.1309843	0.36613568	1.3468384	0.0097591267	0.33928735	1.4086125	0.17522318	0.33126138	1.4085264	-0.14239774	0.38093002	1.2669174	0.01135119	0.36838254	1.332293	-0.05514806	0.37423669	0.46602902	0.049274773	0.35771094	0.4525517	0.15575938	0.38175125	0.67107745	0.10903216	0.29295422	0.10646266	0.089616264	0.27840048	0.09476355	0.17183313	0.2946788	0.28026263	0.18046521	0.21994009	0.047659302	0.12866145	0.43678757	0.061025745	0.11205148
11608	116.07	0.31828058	0.92756482	0.14866591	0.2132171	0.93727704	0.20567026	0.10324545	0.96799072	0.015780228	0.21450642	0.94829236	-0.18858163	0.31630753	0.92245557	-0.1308831	0.36400909	1.3525992	0.010210306	0.3348829	1.4134132	0.1760909	0.32724164	1.4131608	-0.14253157	0.38005234	1.2732922	0.011891026	0.36650961	1.3383108	-0.055039364	0.37086462	0.46643747	0.04854953	0.35429871	0.45335889	0.155078	0.38308841	0.67154163	0.10858853	0.29252823	0.10636151	0.089802483	0.27833237	0.09486187	0.17209198	0.29252841	0.28070618	0.18018158	0.21993094	0.047614162	0.12867967	0.4367291	0.061115673	0.11211186
11609	116.08	0.3223187	0.93145215	0.14898853	0.21682327	0.93988513	0.20515358	0.10728649	0.9692951	0.015101173	0.21966779	0.95111334	-0.18876115	0.32169385	0.92642084	-0.1308098	0.36190512	1.3577866	0.010639842	0.3306279	1.4176559	0.17691895	0.32343793	1.4172546	-0.14262926	0.3791593	1.2790515	0.012413764	0.3646333	1.3437184	-0.054901394	0.36752866	0.46678247	0.047873409	0.35079376	0.45409808	0.15441861	0.38436502	0.67183203	0.10833823	0.29222519	0.10622901	0.08998156	0.27835553	0.094952209	0.1723195	0.29033234	0.2811098	0.17987227	0.2199563	0.047619335	0.12869998	0.43675406	0.061032425	0.1122093
11610	116.09	0.32618356	0.93489081	0.14934079	0.22031418	0.94206744	0.20457564	0.11126267	0.97021307	0.014412967	0.2247155	0.95354657	-0.188927	0.32698102	0.92998694	-0.13076413	0.35983517	1.3624098	0.011047832	0.32651794	1.4213545	0.17770433	0.31986395	1.4208284	-0.14268782	0.37826151	1.284196	0.012915298	0.36278479	1.348519	-0.054726376	0.36422803	0.46705826	0.047244469	0.34717719	0.45477026	0.15377112	0.3855777	0.67194135	0.10829654	0.29206906	0.1060773	0.090141777	0.27845508	0.095037132	0.17250516	0.28806589	0.2814758	0.17951367	0.22001389	0.047663086	0.12871231	0.43685855	0.060780746	0.11233553
